v 0.35 0 0
v 0.283156 0 0.205725
v 0.108156 0 0.33287
v -0.108156 0 0.33287
v -0.283156 0 0.205725
v -0.35 0 4.28626e-17
v -0.283156 0 -0.205725
v -0.108156 0 -0.33287
v 0.108156 0 -0.33287
v 0.283156 0 -0.205725
v 0.252 3.3 0
v 0.203872 3.3 0.148122
v 0.0778723 3.3 0.239666
v -0.0778723 3.3 0.239666
v -0.203872 3.3 0.148122
v -0.252 3.3 3.08611e-17
v -0.203872 3.3 -0.148122
v -0.0778723 3.3 -0.239666
v 0.0778723 3.3 -0.239666
v 0.203872 3.3 -0.148122
v 3 3.3 0
v 2.42705 3.3 1.76336
v 0.927051 3.3 2.85317
v -0.927051 3.3 2.85317
v -2.42705 3.3 1.76336
v -3 3.3 3.67394e-16
v -2.42705 3.3 -1.76336
v -0.927051 3.3 -2.85317
v 0.927051 3.3 -2.85317
v 2.42705 3.3 -1.76336
v 0 6 0
f 1 11 12
f 1 12 2
f 2 12 13
f 2 13 3
f 3 13 14
f 3 14 4
f 4 14 15
f 4 15 5
f 5 15 16
f 5 16 6
f 6 16 17
f 6 17 7
f 7 17 18
f 7 18 8
f 8 18 19
f 8 19 9
f 9 19 20
f 9 20 10
f 10 20 21
f 10 21 11
f 21 31 22
f 22 31 23
f 23 31 24
f 24 31 25
f 25 31 26
f 26 31 27
f 27 31 28
f 28 31 29
f 29 31 30
f 30 31 31
